# xmcd
#
# Track frame offsets:
#	150
#	20170
#	57271
#	75561
#	93560
#	99143
#	115576
#	147522
#	150527
#	181623
#	208119
#	212956
#	251242
#	257601
#	269914
#
# Disc length: 3651 seconds
#
# Revision: 1
# Processed by: cddbd v1.5.2PL0 Copyright (c) Steve Scherf et al.
# Submitted via: audiograbber 1.83.01
#
DISCID=d60e410f
DTITLE=Grateful Dead - 70-06-05 Fillmore West, San Francisco CA
DYEAR=1900
DGENRE=
TTITLE0=Dire Wolf
TTITLE1=I Know You Rider
TTITLE2=Silver Threads and Golden Needles
TTITLE3=Friend Of The Devil
TTITLE4=Tuning
TTITLE5=Me and My Uncle
TTITLE6=Black Peter
TTITLE7=Tuning
TTITLE8=New Speedway Boogie
TTITLE9=Gold Rain and Snow
TTITLE10=PA Test
TTITLE11=Easy Wind
TTITLE12="Monitors!"
TTITLE13=Mama Tried
TTITLE14="Monitors!"
EXTD=
EXTT0=
EXTT1=
EXTT2=
EXTT3=
EXTT4=
EXTT5=
EXTT6=
EXTT7=
EXTT8=
EXTT9=
EXTT10=
EXTT11=
EXTT12=
EXTT13=
EXTT14=
PLAYORDER=
